<svg xmlns="http://www.w3.org/2000/svg" version="1.1" xmlns:xlink="http://www.w3.org/1999/xlink" xmlns:svgjs="http://svgjs.dev/svgjs" width="1000" height="1000" viewBox="0 0 1000 1000"><rect width="1000" height="1000" fill="#000000"></rect><g transform="matrix(0.7,0,0,0.7,149.57575757575756,417.9442157147015)"><svg viewBox="0 0 396 93" data-background-color="#ffffff" preserveAspectRatio="xMidYMid meet" height="234" width="1000" xmlns="http://www.w3.org/2000/svg" xmlns:xlink="http://www.w3.org/1999/xlink"><g id="tight-bounds" transform="matrix(1,0,0,1,0.2400000000000091,0.08844895319148804)"><svg viewBox="0 0 395.52 92.82310209361701" height="92.82310209361701" width="395.52"><g><svg viewBox="0 0 395.52 92.82310209361701" height="92.82310209361701" width="395.52"><g transform="matrix(1,0,0,1,0,64.77203826382978)"><svg viewBox="0 0 395.52 28.05106382978723" height="28.05106382978723" width="395.52"><g id="textblocktransform"><svg viewBox="0 0 395.52 28.05106382978723" height="28.05106382978723" width="395.52" id="textblock"><g><svg viewBox="0 0 395.52 28.05106382978723" height="28.05106382978723" width="395.52"><g transform="matrix(1,0,0,1,0,0)"><svg width="395.52" viewBox="1.75 -39 556.91 39.5" height="28.05106382978723" data-palette-color="#3c2c32"><path d="M40.25-30.45L40.25-8.05Q40.25-6.15 40.43-4.98 40.6-3.8 41.18-3.18 41.75-2.55 42.78-2.3 43.8-2.05 45.5-2L45.5-2 45.5 0 27.15 0 27.15-2Q29-2.05 30.13-2.3 31.25-2.55 31.88-3.15 32.5-3.75 32.7-4.85 32.9-5.95 32.9-7.7L32.9-7.7 32.9-18.15 14.35-18.15 14.35-8.05Q14.35-6.15 14.55-4.98 14.75-3.8 15.35-3.18 15.95-2.55 17.07-2.3 18.2-2.05 20.05-2L20.05-2 20.05 0 1.75 0 1.75-2Q3.45-2.05 4.48-2.3 5.5-2.55 6.05-3.15 6.6-3.75 6.8-4.85 7-5.95 7-7.7L7-7.7 7-30.8Q7-32.55 6.83-33.63 6.65-34.7 6.15-35.33 5.65-35.95 4.73-36.18 3.8-36.4 2.3-36.5L2.3-36.5 2.3-38.5 19.55-38.5 19.55-36.5Q17.85-36.45 16.82-36.2 15.8-35.95 15.25-35.3 14.7-34.65 14.53-33.5 14.35-32.35 14.35-30.45L14.35-30.45 14.35-21.25 32.9-21.25 32.9-30.8Q32.9-32.55 32.7-33.63 32.5-34.7 31.95-35.33 31.4-35.95 30.38-36.18 29.35-36.4 27.65-36.5L27.65-36.5 27.65-38.5 44.95-38.5 44.95-36.5Q43.45-36.45 42.53-36.2 41.6-35.95 41.1-35.3 40.6-34.65 40.43-33.5 40.25-32.35 40.25-30.45L40.25-30.45ZM70.25-39L70.25-39Q74.75-39 78.65-37.45 82.55-35.9 85.42-33.2 88.3-30.5 89.95-26.85 91.6-23.2 91.6-18.95L91.6-18.95Q91.6-14.9 89.92-11.35 88.25-7.8 85.37-5.18 82.5-2.55 78.6-1.03 74.7 0.5 70.25 0.5L70.25 0.5Q65.8 0.5 61.9-1.03 58-2.55 55.1-5.18 52.2-7.8 50.55-11.35 48.9-14.9 48.9-18.95L48.9-18.95Q48.9-23.2 50.55-26.85 52.2-30.5 55.07-33.2 57.95-35.9 61.85-37.45 65.75-39 70.25-39ZM70.25-2.75L70.25-2.75Q73.15-2.75 75.5-3.88 77.85-5 79.5-7.08 81.15-9.15 82.02-12.13 82.9-15.1 82.9-18.8L82.9-18.8Q82.9-22.7 82.02-25.83 81.15-28.95 79.5-31.18 77.85-33.4 75.5-34.58 73.15-35.75 70.25-35.75L70.25-35.75Q67.3-35.75 64.97-34.58 62.65-33.4 61-31.18 59.35-28.95 58.47-25.83 57.6-22.7 57.6-18.8L57.6-18.8Q57.6-15.1 58.47-12.13 59.35-9.15 61-7.08 62.65-5 64.97-3.88 67.3-2.75 70.25-2.75ZM97.25 0L96.5-12.75 98.45-12.75Q99.15-8 102.25-5.28 105.35-2.55 109.9-2.55L109.9-2.55Q111.75-2.55 113.3-3 114.85-3.45 115.95-4.28 117.05-5.1 117.65-6.23 118.25-7.35 118.25-8.75L118.25-8.75Q118.25-9.95 117.87-10.83 117.5-11.7 116.45-12.53 115.4-13.35 113.57-14.2 111.75-15.05 108.85-16.15L108.85-16.15Q103-18.4 100.2-21.38 97.4-24.35 97.4-28.4L97.4-28.4Q97.4-30.75 98.3-32.7 99.2-34.65 100.82-36.05 102.45-37.45 104.72-38.23 107-39 109.75-39L109.75-39Q112.3-39 114.55-38.2 116.8-37.4 119-35.8L119-35.8 119.9-38.3 121.1-38.3 121.65-27.5 119.7-27.5Q118.5-31.6 115.95-33.77 113.4-35.95 110.05-35.95L110.05-35.95Q106.95-35.95 105.02-34.43 103.1-32.9 103.1-30.5L103.1-30.5Q103.1-29.45 103.45-28.63 103.8-27.8 104.75-27.05 105.7-26.3 107.35-25.53 109-24.75 111.6-23.8L111.6-23.8Q115.1-22.45 117.57-21.08 120.05-19.7 121.62-18.13 123.2-16.55 123.95-14.8 124.7-13.05 124.7-10.95L124.7-10.95Q124.7-8.4 123.6-6.3 122.5-4.2 120.52-2.7 118.55-1.2 115.82-0.35 113.1 0.5 109.8 0.5L109.8 0.5Q106.8 0.5 104.4-0.33 102-1.15 99.45-3L99.45-3 98.45 0 97.25 0ZM166.79-38.5L167.29-27.5 165.14-27.5Q164.99-29.95 164.42-31.58 163.84-33.2 162.79-34.18 161.74-35.15 160.24-35.52 158.74-35.9 156.74-35.9L156.74-35.9Q154.79-35.9 153.62-35.83 152.44-35.75 151.82-35.58 151.19-35.4 150.99-35.1 150.79-34.8 150.79-34.35L150.79-34.35 150.79-8.15Q150.79-6.55 151.02-5.4 151.24-4.25 151.94-3.53 152.64-2.8 153.99-2.43 155.34-2.05 157.54-2L157.54-2 157.54 0 136.59 0 136.59-2Q138.84-2.05 140.19-2.43 141.54-2.8 142.27-3.53 142.99-4.25 143.22-5.4 143.44-6.55 143.44-8.15L143.44-8.15 143.44-34.35Q143.44-34.8 143.27-35.1 143.09-35.4 142.54-35.58 141.99-35.75 140.97-35.83 139.94-35.9 138.29-35.9L138.29-35.9Q136.49-35.9 134.84-35.73 133.19-35.55 131.94-34.73 130.69-33.9 129.92-32.23 129.14-30.55 129.09-27.5L129.09-27.5 127.14-27.5 127.64-38.5 166.79-38.5ZM187.54-2L187.54 0 169.69 0 169.69-2Q171.39-2.05 172.42-2.33 173.44-2.6 173.99-3.35 174.54-4.1 174.74-5.48 174.94-6.85 174.94-9.2L174.94-9.2 174.94-29.3Q174.94-31.4 174.77-32.77 174.59-34.15 174.09-34.95 173.59-35.75 172.67-36.08 171.74-36.4 170.19-36.5L170.19-36.5 170.19-38.5 187.04-38.5 187.04-36.5Q185.49-36.4 184.57-36.08 183.64-35.75 183.14-34.95 182.64-34.15 182.47-32.77 182.29-31.4 182.29-29.3L182.29-29.3 182.29-9.2Q182.29-6.85 182.47-5.48 182.64-4.1 183.22-3.35 183.79-2.6 184.82-2.33 185.84-2.05 187.54-2L187.54-2ZM229.54 0.5L222.84 0.5 200.69-31.05 200.49-31.05 200.49-9.55Q200.49-7.05 200.66-5.6 200.84-4.15 201.41-3.35 201.99-2.55 203.01-2.3 204.04-2.05 205.69-2L205.69-2 205.69 0 190.84 0 190.84-2Q192.69-2.05 193.81-2.33 194.94-2.6 195.56-3.35 196.19-4.1 196.39-5.48 196.59-6.85 196.59-9.2L196.59-9.2 196.59-29.3Q196.59-31.4 196.39-32.77 196.19-34.15 195.64-34.95 195.09-35.75 194.06-36.08 193.04-36.4 191.34-36.5L191.34-36.5 191.34-38.5 205.29-38.5 225.44-9.6 225.64-9.6 225.64-28.95Q225.64-31.4 225.46-32.88 225.29-34.35 224.71-35.15 224.14-35.95 223.11-36.2 222.09-36.45 220.44-36.5L220.44-36.5 220.44-38.5 235.29-38.5 235.29-36.5Q233.44-36.45 232.31-36.18 231.19-35.9 230.56-35.15 229.94-34.4 229.74-33 229.54-31.6 229.54-29.3L229.54-29.3 229.54 0.5ZM257.64 0.5L257.64 0.5Q253.14 0.5 249.51-0.83 245.89-2.15 243.36-4.63 240.84-7.1 239.46-10.63 238.09-14.15 238.09-18.55L238.09-18.55Q238.09-23.1 239.56-26.88 241.04-30.65 243.69-33.35 246.34-36.05 250.04-37.52 253.74-39 258.24-39L258.24-39Q261.34-39 264.14-38.15 266.94-37.3 270.19-35.4L270.19-35.4 271.14-38.5 272.94-38.5 272.94-25.85 270.44-25.85Q269.44-30.55 266.41-33.15 263.39-35.75 258.84-35.75L258.84-35.75Q253.09-35.75 249.91-31.33 246.74-26.9 246.74-18.95L246.74-18.95Q246.74-11.15 249.84-7 252.94-2.85 258.84-2.85L258.84-2.85Q263.09-2.85 265.46-5.03 267.84-7.2 267.84-11.05L267.84-11.05Q267.84-13.35 266.64-14.43 265.44-15.5 262.59-15.75L262.59-15.75 262.59-17.75 278.79-17.75 278.79-15.75Q276.34-15.75 275.39-14.68 274.44-13.6 274.44-10.8L274.44-10.8 274.44-4.15Q273.34-4.15 272.59-4.08 271.84-4 271.11-3.78 270.39-3.55 269.49-3.05 268.59-2.55 267.24-1.75L267.24-1.75Q263.39 0.5 257.64 0.5ZM316.33-8.65L315.18-11.65 301.03-11.65Q298.68-6.35 298.68-4.3L298.68-4.3Q298.68-2.8 299.81-2.4 300.93-2 303.18-2L303.18-2 303.18 0 289.48 0 289.48-2Q290.68-2.15 291.56-2.4 292.43-2.65 293.11-3.1 293.78-3.55 294.28-4.28 294.78-5 295.23-6.05L295.23-6.05 308.38-39 312.08-39 324.03-9.8Q325.08-7.25 325.81-5.8 326.53-4.35 327.36-3.58 328.18-2.8 329.26-2.5 330.33-2.2 332.03-2.05L332.03-2.05 332.03 0 313.13 0 313.13-2.05Q315.53-2.15 316.58-2.55 317.63-2.95 317.63-4.15L317.63-4.15Q317.63-4.85 317.28-5.95 316.93-7.05 316.33-8.65L316.33-8.65ZM308.13-29.8L302.18-14.65 314.08-14.65 308.33-29.8 308.13-29.8ZM353.18 0L332.33 0 332.33-2Q333.98-2.05 335-2.27 336.03-2.5 336.6-3.13 337.18-3.75 337.38-4.83 337.58-5.9 337.58-7.7L337.58-7.7 337.58-30.8Q337.58-32.55 337.43-33.63 337.28-34.7 336.78-35.33 336.28-35.95 335.4-36.18 334.53-36.4 333.13-36.5L333.13-36.5 333.13-38.5 352.13-38.5Q356.93-38.5 360.98-37 365.03-35.5 367.98-32.85 370.93-30.2 372.58-26.55 374.23-22.9 374.23-18.6L374.23-18.6Q374.23-14.5 372.68-11.08 371.13-7.65 368.35-5.2 365.58-2.75 361.7-1.38 357.83 0 353.18 0L353.18 0ZM352.03-35.45L345.78-35.45Q344.93-35.45 344.93-34.6L344.93-34.6 344.93-8.75Q344.93-5.85 346.73-4.45 348.53-3.05 352.28-3.05L352.28-3.05Q358.83-3.05 362.35-7 365.88-10.95 365.88-18.5L365.88-18.5Q365.88-22.5 364.93-25.65 363.98-28.8 362.18-30.98 360.38-33.15 357.8-34.3 355.23-35.45 352.03-35.45L352.03-35.45ZM388.68-30.5L396.68-8.6 403.18-25.25Q404.13-27.7 404.7-29.25 405.28-30.8 405.58-31.8 405.88-32.8 405.98-33.4 406.08-34 406.08-34.55L406.08-34.55Q406.08-35.75 405.18-36.13 404.28-36.5 401.58-36.5L401.58-36.5 401.58-38.5 415.78-38.5 415.78-36.5Q411.63-36.5 410.03-32.45L410.03-32.45 396.88 0.5 393.18 0.5 381.23-28.7Q380.23-31.05 379.43-32.55 378.63-34.05 377.73-34.93 376.83-35.8 375.75-36.13 374.68-36.45 373.23-36.45L373.23-36.45 373.23-38.5 392.13-38.5 392.13-36.45Q390.83-36.4 389.95-36.3 389.08-36.2 388.58-35.98 388.08-35.75 387.88-35.38 387.68-35 387.68-34.45L387.68-34.45Q387.68-33.75 387.93-32.8 388.18-31.85 388.68-30.5L388.68-30.5ZM434.67-2L434.67 0 416.82 0 416.82-2Q418.52-2.05 419.55-2.33 420.57-2.6 421.12-3.35 421.67-4.1 421.87-5.48 422.07-6.85 422.07-9.2L422.07-9.2 422.07-29.3Q422.07-31.4 421.9-32.77 421.72-34.15 421.22-34.95 420.72-35.75 419.8-36.08 418.87-36.4 417.32-36.5L417.32-36.5 417.32-38.5 434.17-38.5 434.17-36.5Q432.62-36.4 431.7-36.08 430.77-35.75 430.27-34.95 429.77-34.15 429.6-32.77 429.42-31.4 429.42-29.3L429.42-29.3 429.42-9.2Q429.42-6.85 429.6-5.48 429.77-4.1 430.35-3.35 430.92-2.6 431.95-2.33 432.97-2.05 434.67-2L434.67-2ZM439.92 0L439.17-12.75 441.12-12.75Q441.82-8 444.92-5.28 448.02-2.55 452.57-2.55L452.57-2.55Q454.42-2.55 455.97-3 457.52-3.45 458.62-4.28 459.72-5.1 460.32-6.23 460.92-7.35 460.92-8.75L460.92-8.75Q460.92-9.95 460.55-10.83 460.17-11.7 459.12-12.53 458.07-13.35 456.25-14.2 454.42-15.05 451.52-16.15L451.52-16.15Q445.67-18.4 442.87-21.38 440.07-24.35 440.07-28.4L440.07-28.4Q440.07-30.75 440.97-32.7 441.87-34.65 443.5-36.05 445.12-37.45 447.4-38.23 449.67-39 452.42-39L452.42-39Q454.97-39 457.22-38.2 459.47-37.4 461.67-35.8L461.67-35.8 462.57-38.3 463.77-38.3 464.32-27.5 462.37-27.5Q461.17-31.6 458.62-33.77 456.07-35.95 452.72-35.95L452.72-35.95Q449.62-35.95 447.7-34.43 445.77-32.9 445.77-30.5L445.77-30.5Q445.77-29.45 446.12-28.63 446.47-27.8 447.42-27.05 448.37-26.3 450.02-25.53 451.67-24.75 454.27-23.8L454.27-23.8Q457.77-22.45 460.25-21.08 462.72-19.7 464.3-18.13 465.87-16.55 466.62-14.8 467.37-13.05 467.37-10.95L467.37-10.95Q467.37-8.4 466.27-6.3 465.17-4.2 463.2-2.7 461.22-1.2 458.5-0.35 455.77 0.5 452.47 0.5L452.47 0.5Q449.47 0.5 447.07-0.33 444.67-1.15 442.12-3L442.12-3 441.12 0 439.92 0ZM493.22-39L493.22-39Q497.72-39 501.62-37.45 505.52-35.9 508.39-33.2 511.27-30.5 512.92-26.85 514.57-23.2 514.57-18.95L514.57-18.95Q514.57-14.9 512.89-11.35 511.22-7.8 508.34-5.18 505.47-2.55 501.57-1.03 497.67 0.5 493.22 0.5L493.22 0.5Q488.77 0.5 484.87-1.03 480.97-2.55 478.07-5.18 475.17-7.8 473.52-11.35 471.87-14.9 471.87-18.95L471.87-18.95Q471.87-23.2 473.52-26.85 475.17-30.5 478.04-33.2 480.92-35.9 484.82-37.45 488.72-39 493.22-39ZM493.22-2.75L493.22-2.75Q496.12-2.75 498.47-3.88 500.82-5 502.47-7.08 504.12-9.15 504.99-12.13 505.87-15.1 505.87-18.8L505.87-18.8Q505.87-22.7 504.99-25.83 504.12-28.95 502.47-31.18 500.82-33.4 498.47-34.58 496.12-35.75 493.22-35.75L493.22-35.75Q490.27-35.75 487.94-34.58 485.62-33.4 483.97-31.18 482.32-28.95 481.44-25.83 480.57-22.7 480.57-18.8L480.57-18.8Q480.57-15.1 481.44-12.13 482.32-9.15 483.97-7.08 485.62-5 487.94-3.88 490.27-2.75 493.22-2.75ZM550.91-28.85L550.91-28.85Q550.91-24.7 548.51-21.9 546.12-19.1 540.87-18.15L540.87-18.15 552.46-4.85Q553.66-3.45 555.31-2.73 556.96-2 558.66-2L558.66-2 558.66 0 546.81 0 534.41-15.2Q533.16-16.7 532.24-17.23 531.31-17.75 530.51-17.75L530.51-17.75 530.51-7.95Q530.51-6.1 530.76-4.93 531.01-3.75 531.76-3.1 532.51-2.45 533.94-2.23 535.37-2 537.76-2L537.76-2 537.76 0 517.91 0 517.91-2Q519.56-2 520.59-2.23 521.62-2.45 522.19-3.08 522.76-3.7 522.96-4.83 523.16-5.95 523.16-7.7L523.16-7.7 523.16-30.8Q523.16-32.55 523.01-33.63 522.87-34.7 522.37-35.33 521.87-35.95 520.94-36.18 520.01-36.4 518.46-36.5L518.46-36.5 518.46-38.5 535.76-38.5Q543.01-38.5 546.96-35.95 550.91-33.4 550.91-28.85ZM530.51-34.85L530.51-20.75 533.76-20.75Q538.46-20.75 540.79-22.58 543.12-24.4 543.12-28.6L543.12-28.6Q543.12-31.8 541.16-33.75 539.21-35.7 535.76-35.7L535.76-35.7 531.41-35.7Q530.51-35.7 530.51-34.85L530.51-34.85Z" opacity="1" transform="matrix(1,0,0,1,0,0)" fill="#ffffff" class="undefined-text-0" data-fill-palette-color="primary" id="text-0"></path></svg></g></svg></g></svg></g></svg></g><g transform="matrix(1,0,0,1,155.85637410720997,0)"><svg viewBox="0 0 83.80725178558002 58.149855319148934" height="58.149855319148934" width="83.80725178558002"><g><svg xmlns:x="http://ns.adobe.com/Extensibility/1.0/" xmlns:i="http://ns.adobe.com/AdobeIllustrator/10.0/" xmlns:graph="http://ns.adobe.com/Graphs/1.0/" xmlns="http://www.w3.org/2000/svg" xmlns:xlink="http://www.w3.org/1999/xlink" version="1.1" x="8" y="0" viewBox="0.5 7.5 99 84.9" enable-background="new 0 0 100 100" xml:space="preserve" height="58.149855319148934" width="67.80725178558002" class="icon-icon-0" data-fill-palette-color="accent" id="icon-0"><path d="M38.4 21.5c0-1.4 1.1-2.5 2.5-2.5H64c1.4 0 2.5 1.1 2.5 2.5S65.4 24 64 24H40.9C39.5 24 38.4 22.9 38.4 21.5zM22 24.2c1.4 0 2.6-1.2 2.6-2.6s-1.2-2.6-2.6-2.6-2.6 1.2-2.6 2.6S20.5 24.2 22 24.2zM40.9 42c-1.4 0-2.5 1.1-2.5 2.5s1.1 2.5 2.5 2.5H64c1.4 0 2.5-1.1 2.5-2.5S65.4 42 64 42H40.9zM19.4 44.5c0 1.4 1.2 2.6 2.6 2.6s2.6-1.2 2.6-2.6c0-1.4-1.2-2.6-2.6-2.6S19.4 43 19.4 44.5zM6.5 55.9c-3.6-2.5-6-6.7-6-11.4 0-4.8 2.4-9 6-11.5-3.6-2.5-6-6.7-6-11.5 0-7.7 6.3-14 14-14h54.4c7.7 0 14 6.3 14 14 0 4.7-2.4 8.9-6 11.4 3.6 2.5 6 6.7 6 11.4 0 1.4-1.1 2.5-2.5 2.5s-2.5-1.1-2.5-2.5c0-5-4-9-8.9-9h0H14.5h0c-4.9 0-8.9 4-8.9 8.9 0 5 4 9 8.9 9H56c1.4 0 2.5 1.1 2.5 2.5s-1.1 2.5-2.5 2.5H14.4c-4.9 0-8.9 4-8.9 8.9 0 5 4 9 8.9 9h37.3c1.4 0 2.5 1.1 2.5 2.5s-1.1 2.5-2.5 2.5H14.4c-7.7 0-13.9-6.2-13.9-13.9C0.5 62.7 2.9 58.5 6.5 55.9zM5.5 21.5c0 4.9 4 9 9 9h54.4c4.9 0 9-4 9-9s-4-9-9-9H14.5C9.5 12.6 5.5 16.6 5.5 21.5zM40.9 64.9c-1.4 0-2.5 1.1-2.5 2.5s1.1 2.5 2.5 2.5h10.5c1.4 0 2.5-1.1 2.5-2.5s-1.1-2.5-2.5-2.5H40.9zM19.4 67.4c0 1.4 1.2 2.6 2.6 2.6s2.6-1.2 2.6-2.6c0-1.4-1.2-2.6-2.6-2.6S19.4 65.9 19.4 67.4zM99.5 71.5c0 11.5-9.4 20.9-20.9 20.9-11.5 0-20.9-9.4-20.9-20.9 0-11.5 9.4-20.9 20.9-20.9C90.1 50.7 99.5 60 99.5 71.5zM94.5 71.5c0-8.8-7.1-15.9-15.9-15.9s-15.9 7.1-15.9 15.9 7.1 15.9 15.9 15.9S94.5 80.3 94.5 71.5zM83 65.5l-6.9 6.9-1.9-1.9c-1-1-2.6-1-3.5 0-1 1-1 2.6 0 3.5l3.6 3.6c0.5 0.5 1.1 0.7 1.8 0.7 0 0 0 0 0 0 0.7 0 1.3-0.3 1.8-0.7l8.7-8.6c1-1 1-2.6 0-3.5C85.6 64.5 84 64.5 83 65.5z" fill="#ffffff" data-fill-palette-color="accent"></path></svg><g></g></g></svg></g><g><rect width="155.85637410720997" height="2.5296738848680844" y="54.62018143428085" x="239.66362589278998" fill="#ffffff" data-fill-palette-color="accent"></rect><rect width="155.85637410720997" height="2.5296738848680844" y="54.62018143428085" x="0" fill="#ffffff" data-fill-palette-color="accent"></rect><rect width="155.85637410720997" height="2.5296738848680844" y="49.56083366454468" x="239.66362589278998" fill="#ffffff" data-fill-palette-color="accent"></rect><rect width="155.85637410720997" height="2.5296738848680844" y="49.56083366454468" x="0" fill="#ffffff" data-fill-palette-color="accent"></rect></g></svg></g><defs></defs></svg><rect width="395.52" height="92.82310209361701" fill="none" stroke="none" visibility="hidden"></rect></g></svg></g></svg>